<?xml version="1.0" encoding="utf-8"?>
<!-- Generator: Adobe Illustrator 24.0.3, SVG Export Plug-In . SVG Version: 6.00 Build 0)  -->
<svg version="1.1" id="Layer_1" xmlns="http://www.w3.org/2000/svg" xmlns:xlink="http://www.w3.org/1999/xlink" x="0px" y="0px"
	 viewBox="0 0 39.2 8.1" style="enable-background:new 0 0 39.2 8.1;" xml:space="preserve">
<style type="text/css">
	.st0{fill:#5D5D5D;}
</style>
<title>bannerArtboard 6</title>
<g id="Policies">
	<g>
		<path class="st0" d="M5.4,2.4C5.2,1.7,4.6,1.2,3.8,1.3c-1.7,0-2.2,1.5-2.2,2.8S2.2,7,3.8,7c0.8,0.1,1.4-0.4,1.6-1.2h0.6
			c-0.2,1-1.2,1.7-2.2,1.7C1.8,7.5,1,5.9,1,4.1s0.8-3.4,2.8-3.4c1-0.1,2,0.6,2.1,1.6c0,0,0,0,0,0H5.4z"/>
		<path class="st0" d="M10,7.5c-1.9,0-2.9-1.4-2.9-3.4s1-3.4,2.9-3.4s2.9,1.4,2.9,3.4S11.9,7.5,10,7.5z M10,7c1.6,0,2.3-1.4,2.3-2.8
			S11.6,1.3,10,1.3S7.7,2.7,7.7,4.1S8.4,7,10,7z"/>
		<path class="st0" d="M15.8,6.8L15.8,6.8l2.1-5.9h0.6l-2.4,6.5h-0.7l-2.4-6.5h0.6L15.8,6.8z"/>
		<path class="st0" d="M19.5,7.4V0.8h0.6v6.5H19.5z"/>
		<path class="st0" d="M23.6,0.9c2.1,0,3.4,1.1,3.4,3.2s-1.2,3.2-3.4,3.2h-1.8V0.9H23.6z M23.7,6.9c1.8,0,2.6-1.1,2.6-2.7
			c0-1.9-1.1-2.8-3-2.7h-0.9v5.4L23.7,6.9z"/>
		<path class="st0" d="M27.6,4.7h2.3v0.5h-2.3V4.7z"/>
		<path class="st0" d="M31,2.1c0.5-0.2,1-0.6,1.4-1H33v6.2h-0.6V1.8C32,2.2,31.5,2.5,31,2.7L31,2.1z"/>
		<path class="st0" d="M35.6,5.8C35.6,6.7,36.2,7,37,7c1.4,0,1.5-2,1.5-3l0,0c-0.3,0.6-0.9,1-1.6,1c-1,0-1.9-0.8-1.9-1.8
			c0-0.1,0-0.2,0-0.2c-0.1-1.1,0.8-1.9,1.8-2c0.1,0,0.1,0,0.2,0c1.8,0,2.2,1.5,2.2,3.1s-0.4,3.4-2.4,3.4c-0.9,0.1-1.7-0.6-1.8-1.6
			c0,0,0-0.1,0-0.1H35.6z M35.6,3.1c-0.1,0.7,0.5,1.3,1.2,1.4c0.1,0,0.1,0,0.2,0c0.8,0,1.5-0.6,1.5-1.4c0,0,0-0.1,0-0.1
			c0-0.8-0.6-1.4-1.4-1.5c0,0,0,0-0.1,0c-0.8,0-1.4,0.6-1.4,1.3C35.6,2.9,35.6,3,35.6,3.1L35.6,3.1z"/>
	</g>
</g>
</svg>
